<?xml version="1.0" standalone="no"?><!DOCTYPE svg PUBLIC "-//W3C//DTD SVG 1.1//EN" "http://www.w3.org/Graphics/SVG/1.1/DTD/svg11.dtd"><svg class="icon" width="64px" height="64.00px" viewBox="0 0 1024 1024" version="1.1" xmlns="http://www.w3.org/2000/svg"><path fill="#e6e6e6" d="M428.8 85.333333h-294.4C107.093333 85.333333 85.333333 107.093333 85.333333 134.4v294.4c0 27.306667 21.76 49.066667 49.066667 49.066667h294.4c27.306667 0 49.066667-21.76 49.066667-49.066667v-294.4c0-27.306667-21.76-49.066667-49.066667-49.066667zM409.6 409.6H153.6V153.6h256v256zM889.6 85.333333h-294.4c-27.306667 0-49.066667 21.76-49.066667 49.066667v294.4c0 27.306667 21.76 49.066667 49.066667 49.066667h294.4c27.306667 0 49.066667-21.76 49.066667-49.066667v-294.4c0-27.306667-21.76-49.066667-49.066667-49.066667zM870.4 409.6h-256V153.6h256v256zM428.8 544h-294.4c-27.306667 0-49.066667 21.76-49.066667 49.066667v294.4c0 27.306667 21.76 49.066667 49.066667 49.066666h294.4c27.306667 0 49.066667-21.76 49.066667-49.066666v-294.4c0-27.306667-21.76-49.066667-49.066667-49.066667z m-19.2 324.266667H153.6v-256h256v256zM889.6 544h-294.4c-27.306667 0-49.066667 21.76-49.066667 49.066667v294.4c0 27.306667 21.76 49.066667 49.066667 49.066666h294.4c27.306667 0 49.066667-21.76 49.066667-49.066666v-294.4c0-27.306667-21.76-49.066667-49.066667-49.066667z m-19.2 324.266667h-256v-256h256v256z"  /></svg>