<?xml version="1.0" encoding="utf-8"?>
<!-- Generator: Adobe Illustrator 23.0.2, SVG Export Plug-In . SVG Version: 6.00 Build 0)  -->
<svg version="1.1" id="图层_1" xmlns="http://www.w3.org/2000/svg" xmlns:xlink="http://www.w3.org/1999/xlink" x="0px" y="0px"
	 viewBox="0 0 750 750" style="enable-background:new 0 0 750 750;" xml:space="preserve">
<g>
	<path d="M621.73,699.53H126.8c-42.33,0-76.8-34.47-76.8-76.8V298.46c0-42.32,34.47-76.8,76.8-76.8h494.93
		c42.33,0,76.8,34.47,76.8,76.8v324.27C698.53,665.06,664.06,699.53,621.73,699.53L621.73,699.53z M126.8,272.87
		c-14.17,0-25.6,11.43-25.6,25.6v324.27c0,14.16,11.43,25.6,25.6,25.6h494.93c14.16,0,25.6-11.43,25.6-25.6V298.46
		c0-14.16-11.43-25.6-25.6-25.6H126.8z M621.73,187.53H126.8c-14.17,0-25.6-11.43-25.6-25.6c0-14.17,11.43-25.6,25.6-25.6h494.93
		c14.16,0,25.6,11.44,25.6,25.6C647.33,176.1,635.9,187.53,621.73,187.53L621.73,187.53z M570.53,102.2H178
		c-14.16,0-25.6-11.43-25.6-25.6c0-14.17,11.44-25.6,25.6-25.6h392.53c14.17,0,25.6,11.43,25.6,25.6
		C596.13,90.77,584.7,102.2,570.53,102.2L570.53,102.2z M570.53,102.2"/>
	<path d="M375.63,605.67c-14.17,0-25.6-11.44-25.6-25.6V420.84c0-14.17,11.43-25.6,25.6-25.6c14.16,0,25.6,11.43,25.6,25.6v159.23
		C401.23,594.23,389.63,605.67,375.63,605.67L375.63,605.67z M375.63,605.67"/>
	<path d="M479.23,446.43H271.87c-14.17,0-25.6-11.43-25.6-25.6c0-14.17,11.43-25.6,25.6-25.6h207.36c14.16,0,25.6,11.43,25.6,25.6
		C504.83,435,493.39,446.43,479.23,446.43L479.23,446.43z M447.31,525.97H303.78c-14.16,0-25.6-11.43-25.6-25.6
		c0-14.17,11.44-25.6,25.6-25.6h143.53c14.16,0,25.6,11.43,25.6,25.6C472.91,514.53,461.48,525.97,447.31,525.97L447.31,525.97z
		 M447.31,525.97"/>
	<path d="M367.61,430.39c-6.48,0-13.14-2.56-18.09-7.51l-63.83-63.66c-4.84-4.78-7.56-11.29-7.56-18.09c0-6.8,2.72-13.31,7.56-18.09
		c4.78-4.84,11.29-7.56,18.09-7.56s13.31,2.72,18.09,7.56l63.83,63.66c10.07,10.07,10.07,26.29,0,36.18
		C380.75,428,374.1,430.39,367.61,430.39L367.61,430.39z M367.61,430.39"/>
	<path d="M383.48,430.39c-10.34-0.01-19.67-6.25-23.63-15.8c-3.96-9.56-1.77-20.56,5.54-27.89l63.83-63.66
		c10.07-9.9,26.28-10.07,36.18,0c9.9,10.07,9.9,26.28,0,36.18l-63.83,63.66C396.63,428,390.14,430.39,383.48,430.39L383.48,430.39z
		 M383.48,430.39"/>
</g>
</svg>
