<?xml version="1.0" encoding="utf-8"?>
<!-- Generator: Adobe Illustrator 23.0.2, SVG Export Plug-In . SVG Version: 6.00 Build 0)  -->
<svg version="1.1" id="图层_1" xmlns="http://www.w3.org/2000/svg" xmlns:xlink="http://www.w3.org/1999/xlink" x="0px" y="0px"
	 viewBox="0 0 750 750" style="enable-background:new 0 0 750 750;" xml:space="preserve">
<style type="text/css">
	.st0{clip-path:url(#SVGID_2_);}
</style>
<g>
	<g>
		<defs>
			<rect id="SVGID_1_" x="3.47" y="3.51" width="742.9" height="743.7"/>
		</defs>
		<clipPath id="SVGID_2_">
			<use xlink:href="#SVGID_1_"  style="overflow:visible;"/>
		</clipPath>
		<path d="M658.73,239.93H521.4V101.01c0.6-52.6-41.26-95.88-93.85-97.03H98.28C72.82,4.26,48.52,14.64,30.72,32.84
			c-17.8,18.2-27.64,42.72-27.36,68.17v609.57c0,19.73,15.99,35.72,35.72,35.72h669.99c20.22,0,36.61-16.39,36.61-36.61V328.48
			c0.28-23.3-8.74-45.74-25.06-62.37C704.31,249.5,682.03,240.07,658.73,239.93L658.73,239.93z M194.78,689.04V571.86
			c-0.01-5.36,4.19-9.79,9.55-10.07h117.18c5.36,0.28,9.55,4.71,9.54,10.07v117.18H194.78z M385.66,689.04V571.86
			c0.31-36-28.18-65.66-64.16-66.81H204.32c-36.28,0.86-65.23,30.52-65.22,66.81v117.71H56.39V101.01
			c0-22.05,17.72-40.01,39.77-40.3h331.4c22.05,0.29,39.77,18.25,39.77,40.3v588.56L385.66,689.04z M690.01,689.04H521.4v-392.9
			h137.33c8.53,0,16.7,3.42,22.69,9.5c5.98,6.08,9.27,14.31,9.13,22.84v361.09L690.01,689.04z M690.01,689.04"/>
	</g>
	<path d="M361.8,178.96H162.44c-14.18,1.94-24.75,14.06-24.75,28.37c0,14.31,10.57,26.42,24.75,28.37H361.8
		c14.18-1.94,24.75-14.06,24.75-28.37C386.55,193.01,375.98,180.9,361.8,178.96L361.8,178.96z M361.8,333.26H162.44
		c-14.18,1.94-24.75,14.06-24.75,28.37c0,14.31,10.57,26.42,24.75,28.37H361.8c14.18-1.94,24.75-14.06,24.75-28.37
		C386.55,347.31,375.98,335.2,361.8,333.26L361.8,333.26z M361.8,333.26"/>
</g>
</svg>
