<?xml version="1.0" encoding="utf-8"?>
<!-- Generator: Adobe Illustrator 23.0.2, SVG Export Plug-In . SVG Version: 6.00 Build 0)  -->
<svg version="1.1" id="图层_1" xmlns="http://www.w3.org/2000/svg" xmlns:xlink="http://www.w3.org/1999/xlink" x="0px" y="0px"
	 viewBox="0 0 830 830" style="enable-background:new 0 0 830 830;" xml:space="preserve">
<style type="text/css">
	.st0{fill:none;}
</style>
<path d="M646.55,125.45c29.36,0,49.18,22.35,49.18,56.14c0,25.7-20.27,58-55.73,91.2l-7.93,7.23
	c-15.95,14.15-31.92,26.19-45.3,35.17l-2.35,1.53l-2.53-1.64c-15.57-10.47-34.64-25.03-53.23-42.32
	c-35.65-33.27-56.18-65.71-56.44-91.64c0-33.3,19.82-55.66,49.17-55.66c-1.86,0,1.08,1.15,5.96,4.1l6.33,4.1l21.01,14.67
	c1.9,1.27,3.65,2.39,5.36,3.43l23.58,14.16l23.77-13.89l7.64-4.84l22.24-15.35l9.2-5.59C647.3,125.68,647.37,125.45,646.55,125.45
	L646.55,125.45z M584.04,89.98l-3.79-2.73c-4.18-2.93-8.45-5.74-12.8-8.4c-14.34-8.67-26.79-13.65-40.79-13.65
	c-66.59,0-113.36,52.67-113.36,119.64c0.48,47.44,28.33,91.44,73.42,133.5c21.95,20.52,45.88,38.82,71.44,54.61
	c8.19,4.91,16.9,7.51,26.22,7.51c9.52,0.07,19.12-2.76,27.27-8.19c25.17-15.61,48.72-33.69,70.32-53.96
	c44.98-42.15,72.67-86.22,72.67-133.39c0-67-46.8-119.71-113.32-119.71c-14.4,0-27,5.22-41.88,14.4l-7.51,4.92L584.04,89.98z
	 M584.04,89.98"/>
<path d="M393.13,365.81c95.57,65.54,135.24,97.9,147.32,128.65c141.76-46.01,209.58-61.54,236.41-49.12
	c54.27,25.19,64.58,119.4,8.19,169.2c-46.28,40.93-266.55,145.64-312.25,150.02c-24.85,2.39-69.77-10.14-141.75-35.5
	c-7.17-2.56-14.58-5.19-22.19-7.95c-16.21-5.89-32.37-11.89-48.5-17.99l-38.81-14.68c-32.53-12.29-92.64-12.29-178.18,1.74
	c-18.36,2.57-35.4-1.98-38.41-20.27c-3-18.29,9.14-32.63,27.35-36.07c96.43-15.84,166.84-12.84,213.33,4.71
	c2.77,1.06,29.56,11.23,38.77,14.68c23.03,8.69,46.14,15.16,69.33,23.43c58.78,20.72,102.5,34.94,112.57,33.95
	c30.44-2.9,249.54-109.38,285.54-141.22c14.98-13.19,9.17-43.54,2.81-59.12c-2.07-5.07-7.29-8.19-12.71-7.42
	c-0.03,0-0.06,0.01-0.08,0.01c-11.27,1.54-27.07,4.88-47.17,10c-38.47,9.8-91.82,25.87-159.81,48.23
	c-12.01,21.16-34.23,43.25-67.21,45.5c-47.93,3.27-132.47-24-166.57-49.5c-15.09-11.31-18.15-28.71-6.84-43.8
	c11.31-15.09,32.72-15.15,47.8-3.84c21.4,16.04,94.67,33.64,125.66,31.56c4.98-0.34,10.84-9.98,13.13-11.96
	c0.57-3.52,1.74-6.93,3.45-10.07c0-1.98-0.27-4.23-0.72-6.79c0.17,0.95-0.44-0.21-2.7-3c-6.04-7.14-8.7-16.73-15.9-22.69
	c-19.9-17.2-53.37-40.38-101.46-73.35c-69.7-47.79-115.67-62.71-138.5-54.04c-9.83,3.75-69.63,44.41-167.59,113.16
	c-9.98,7.05-33.7,9.75-41.87-2.06c-6.95-10.04-7.37-31.83,2.65-38.82c107.52-75.44,164.39-113.19,182.54-120.12
	C247.07,293.68,306.5,306.48,393.13,365.81L393.13,365.81z M393.13,365.81"/>
<polygon points="45.73,73 865.57,65 865.57,765.8 45.73,773.8 "/>
</svg>
