<?xml version="1.0" encoding="utf-8"?>
<!-- Generator: Adobe Illustrator 23.0.2, SVG Export Plug-In . SVG Version: 6.00 Build 0)  -->
<svg version="1.1" id="图层_1" xmlns="http://www.w3.org/2000/svg" xmlns:xlink="http://www.w3.org/1999/xlink" x="0px" y="0px"
	 viewBox="0 0 750 750" style="enable-background:new 0 0 750 750;" xml:space="preserve">

<path d="M338.62,89.12c-92.16,0-168.34,74.63-168.34,166.79c0,53.98,25.39,104.86,69.88,136.56
	C140.12,432.2,75,525.92,75,635.44c0,14.25,11.14,25.39,25.39,25.39c14.25,0,25.39-11.14,25.39-25.39
	c0-115.92,95.27-211.27,212.83-211.27h7.95c-1.56,0,61.93-7.95,93.71-33.34c42.84-31.79,68.32-81.02,68.32-135
	C508.6,163.75,432.34,89.12,338.62,89.12L338.62,89.12z M338.62,378.62c-68.98,0-124.43-55.46-124.43-122.71
	c0-67.26,55.46-122.71,124.43-122.71c68.89,0,124.44,55.46,124.44,122.71C463.05,323.17,407.59,378.62,338.62,378.62L338.62,378.62z
	 M542.11,660.92c-8.2,0-16.3-4.09-20.4-12.21l-95.19-155.07h-6.8c-12.21,0-23.1-10.89-23.1-23.1c0-12.2,9.5-23.1,23.1-23.1h20.4
	c8.19,0,16.3,4.1,20.4,12.21l78.89,123.7L606,460.95c4.1-8.19,12.21-13.6,20.4-13.6h24.5c12.21,0,23.1,10.9,23.1,23.1
	c0,12.21-9.5,23.1-23.1,23.1h-9.5l-77.5,153.68C559.8,655.43,551.61,660.92,542.11,660.92L542.11,660.92z M542.11,660.92"/>
</svg>
