<?xml version="1.0" encoding="utf-8"?>
<!-- Generator: Adobe Illustrator 23.0.2, SVG Export Plug-In . SVG Version: 6.00 Build 0)  -->
<svg version="1.1" id="图层_1" xmlns="http://www.w3.org/2000/svg" xmlns:xlink="http://www.w3.org/1999/xlink" x="0px" y="0px"
	 viewBox="0 0 750 750" style="enable-background:new 0 0 750 750;" xml:space="preserve">

<path  d="M598.55,737H150.86c-66.64,0-123.5-47.8-135.21-113.7c-3.77-21.22-5.66-42.72-5.65-64.27
	c0-130.01,70.45-250.76,181.78-315.55c-39.45-56.49-46.08-109.94-19.05-155.81c0.16-0.29,0.37-0.62,0.58-0.9
	c15.64-24.04,58.73-50.46,117.64-34.04C326.38,15,371.72,15,387.73,15c28.46,0,64.18,15.89,84.46,41.25
	c27.65-6.72,65.41-5.98,92.9,12.21c25.85,17.12,38.05,46.45,34.41,82.62c-3.44,33.91-15.6,65.95-36.29,95.64
	c109.4,65.86,176.17,182.93,176.17,312.28c0.01,22.61-2.08,45.16-6.23,67.38C721.19,690.47,664.58,737,598.55,737L598.55,737z
	 M218.42,119.24c-23.17,40.14,4.73,87.21,32.3,119.67c4.83,5.68,6.74,13.29,5.16,20.57c-1.57,7.29-6.44,13.44-13.17,16.65
	C135.57,326.95,66.38,436.33,66.38,554.84c0,18.25,1.6,36.54,4.76,54.35c7.36,41.42,43.06,71.48,84.85,71.48h437.44
	c41.42,0,76.88-28.98,84.32-68.84c3.49-18.65,5.25-37.82,5.25-56.99c0-117.87-65.64-223.73-171.26-276.24
	c-6.72-3.32-11.49-9.6-12.89-16.97c-1.4-7.36,0.68-14.97,5.68-20.53c24.65-27.58,38.78-57.75,42.02-89.69
	c2.36-23.21-5.92-31.58-12.37-35.86c-18.37-12.17-51.87-7.92-63.28-1.68c-6.17,3.38-13.5,3.89-20.08,1.4
	c-6.57-2.5-11.73-7.74-14.1-14.37c-5.12-14.37-30.5-29.58-49.31-29.58c-31.94,0-51.91,9.17-66.76,30.62
	c-6.4,9.24-18.36,12.81-28.77,8.57C248.76,92.98,224.1,111.03,218.42,119.24L218.42,119.24z M214.76,113.22"/>
<path  d="M476,482.11H275.42c-13.56,0-24.58-11.02-24.58-24.58c0-13.56,11.02-24.57,24.58-24.57H476
	c13.55,0,24.57,11.02,24.57,24.57C500.58,471.09,489.6,482.11,476,482.11L476,482.11z M476,557.92H275.42
	c-13.56,0-24.58-11.02-24.58-24.58c0-13.55,11.02-24.57,24.58-24.57H476c13.55,0,24.57,11.02,24.57,24.57
	C500.58,546.9,489.6,557.92,476,557.92L476,557.92z M476,557.92"/>
<path  d="M375.73,636.4c-13.55,0-24.57-11.02-24.57-24.57V468.34c0-13.56,11.02-24.57,24.57-24.57
	c13.56,0,24.58,11.02,24.58,24.57v143.48C400.31,625.42,389.29,636.4,375.73,636.4L375.73,636.4z M375.73,636.4"/>
<path d="M375.73,478.05c-6.63,0-12.98-2.66-17.61-7.41L257.85,367.74c-9.46-9.71-9.3-25.27,0.45-34.73
	c9.75-9.46,25.27-9.3,34.73,0.45l82.7,84.83l82.7-84.83c9.46-9.71,25.03-9.91,34.78-0.45c9.71,9.46,9.91,25.03,0.45,34.78
	L393.39,470.68C388.72,475.39,382.36,478.04,375.73,478.05L375.73,478.05z M375.73,478.05"/>
</svg>
