<?xml version="1.0" encoding="utf-8"?>
<!-- Generator: Adobe Illustrator 23.0.2, SVG Export Plug-In . SVG Version: 6.00 Build 0)  -->
<svg version="1.1" id="图层_1" xmlns="http://www.w3.org/2000/svg" xmlns:xlink="http://www.w3.org/1999/xlink" x="0px" y="0px"
	 viewBox="0 0 750 750" style="enable-background:new 0 0 750 750;" xml:space="preserve">
<g>
	<path d="M336,638.52H150.4c-8.88,0-16.32-8.16-16.32-17.76v-508c0-9.6,7.44-17.76,16.32-17.76h411.76
		c8.88,0,16.32,8.16,16.32,17.76v249.68c0,13.28,10.72,24,24,24c13.28,0,24-10.72,24-24V112.76c0-36.24-28.88-65.76-64.32-65.76
		H150.32C114.88,47,86,76.52,86,112.76v507.92c0,36.24,28.88,65.76,64.32,65.76h185.6c13.28,0,24-10.72,24-24
		C359.92,649.16,349.2,638.52,336,638.52L336,638.52z M336,638.52"/>
	<path d="M652.72,585.32c-9.44-6.48-15.12-17.2-15.12-28.64c0-11.36,5.6-22.08,14.88-28.48l10.88-7.6l-4.48-12.4
		c-6-16.88-15.04-32.4-26.88-46l-8.56-9.84l-11.76,5.52c-4.64,2.16-9.6,3.28-14.64,3.28c-18.08,0-32.96-13.52-34.64-31.52
		l-1.2-13.04l-12.8-2.4c-17.52-3.28-35.76-3.28-53.2,0l-12.8,2.4l-1.2,13.04c-1.6,18-16.56,31.52-34.64,31.52
		c-5.04,0-10.08-1.12-14.64-3.28l-11.76-5.52l-8.56,9.84c-11.76,13.6-20.72,29.12-26.88,46l-4.48,12.4l10.88,7.6
		c9.36,6.56,14.88,17.2,14.88,28.48c0,11.44-5.68,22.24-15.12,28.64L380,592.76l4.32,12.48c5.84,16.88,14.72,32.4,26.32,46.08
		l8.64,10.16l12.08-5.84c4.72-2.32,9.84-3.44,15.12-3.44c18.24,0,33.52,14.24,34.72,32.4l0.88,13.36l13.2,2.4
		c8.72,1.6,17.68,2.4,26.56,2.4c8.88,0,17.84-0.8,26.56-2.4l13.2-2.4l0.88-13.36c1.2-18.16,16.48-32.4,34.72-32.4
		c5.36,0,10.4,1.2,15.12,3.44l12.08,5.84l8.64-10.16c11.6-13.68,20.48-29.2,26.32-46.08l4.32-12.48L652.72,585.32z M613.76,619.8
		c-5.44-1.28-10.96-2-16.64-2c-31.36,0-58.32,21.2-66.56,50.32c-5.76,0.4-11.6,0.4-17.36,0C504.96,639,478,617.8,446.64,617.8
		c-5.68,0-11.2,0.72-16.64,2c-3.28-4.8-6.24-9.92-8.72-15.12c12.24-12.72,19.28-29.92,19.28-47.92c0-17.84-6.88-34.8-18.88-47.44
		c2.56-5.44,5.6-10.56,9.04-15.52c5.2,1.2,10.48,1.84,15.84,1.84c17.36,0,34-6.48,46.8-18.16c9.2-8.4,15.84-19.04,19.36-30.72
		c6-0.48,12.08-0.48,18.08,0c3.6,11.68,10.24,22.32,19.36,30.72c12.8,11.68,29.36,18.16,46.8,18.16c5.44,0,10.72-0.64,15.84-1.84
		c3.44,4.88,6.48,10.08,9.04,15.52c-12,12.72-18.88,29.68-18.88,47.44c0,18.08,7.04,35.12,19.28,47.92
		C619.92,609.88,616.96,614.92,613.76,619.8L613.76,619.8z M613.76,619.8"/>
	<path d="M521.84,496.04c-33.76,0-61.28,27.44-61.28,61.28c0,33.76,27.44,61.28,61.28,61.28s61.28-27.44,61.28-61.28
		S555.6,496.04,521.84,496.04L521.84,496.04z M521.84,584.12c-14.8,0-26.88-12.08-26.88-26.88c0-14.8,12.08-26.88,26.88-26.88
		c14.8,0,26.88,12.08,26.88,26.88C548.72,572.04,536.64,584.12,521.84,584.12L521.84,584.12z M489.28,195.48H223.12
		c-13.28,0-24,10.72-24,24c0,13.28,10.72,24,24,24h266.16c13.28,0,24-10.72,24-24C513.28,206.2,502.56,195.48,489.28,195.48
		L489.28,195.48z M513.28,344.36c0-13.28-10.72-24-24-24H223.12c-13.28,0-24,10.72-24,24c0,13.28,10.72,24,24,24h266.16
		C502.56,368.36,513.28,357.64,513.28,344.36L513.28,344.36z M223.52,445.24c-13.28,0-24,10.72-24,24c0,13.28,10.72,24,24,24h111.84
		c13.28,0,24-10.72,24-24c0-13.28-10.72-24-24-24H223.52z M223.52,445.24"/>
</g>
</svg>
