<?xml version="1.0" encoding="utf-8"?>
<!-- Generator: Adobe Illustrator 23.0.2, SVG Export Plug-In . SVG Version: 6.00 Build 0)  -->
<svg version="1.1" id="图层_1" xmlns="http://www.w3.org/2000/svg" xmlns:xlink="http://www.w3.org/1999/xlink" x="0px" y="0px"
	 viewBox="0 0 750 750" style="enable-background:new 0 0 750 750;" xml:space="preserve">

<path d="M599.89,302.53l25.94,324.27H122.36l25.94-324.27H599.89 M599.89,251.33H148.3
	c-26.75-0.09-49.06,20.44-51.2,47.11L71.16,622.7c-1.14,14.27,3.74,28.38,13.47,38.88c9.73,10.51,23.41,16.46,37.73,16.41h503.47
	c14.32,0.05,28-5.91,37.73-16.41c9.73-10.51,14.61-24.61,13.47-38.88l-25.94-324.27C648.95,271.77,626.64,251.25,599.89,251.33
	L599.89,251.33z M599.89,251.33"/>
<path d="M527.7,394.18c-14.14,0-25.6-11.46-25.6-25.6V259.87c2.2-72.99-55.02-134.03-128-136.54
	c-72.98,2.5-130.2,63.54-128,136.54v108.71c0,14.14-11.46,25.6-25.6,25.6c-14.14,0-25.6-11.46-25.6-25.6V259.87
	C192.7,158.6,272.84,74.65,374.1,72.13c101.25,2.52,181.39,86.47,179.2,187.73v108.71C553.3,382.72,541.84,394.18,527.7,394.18
	L527.7,394.18z M527.7,394.18"/>
</svg>
